<?xml version="1.0" encoding="iso-8859-1"?>
<!-- Uploaded to: SVG Repo, www.svgrepo.com, Generator: SVG Repo Mixer Tools -->
<svg version="1.1" id="Layer_1" xmlns="http://www.w3.org/2000/svg" xmlns:xlink="http://www.w3.org/1999/xlink" 
	 viewBox="0 0 511.999 511.999" xml:space="preserve">
<rect x="198.406" y="350.407" style="fill:#FFE98F;" width="67.548" height="95.256"/>
<rect x="256" y="350.407" style="fill:#FFC170;" width="57.594" height="95.256"/>
<path style="fill:#FFE98F;" d="M214.921,297.739L48.294,198.804l-9.516,13.493C37.193,214.542,0,268.044,0,335.046
	c0,71.856,58.46,130.315,130.315,130.315c32.264,0,61.822-11.792,84.606-31.284V297.739z"/>
<path style="fill:#A2001D;" d="M22.227,293.106c8.306,4.838,188.915,109.942,193.686,112.72c4.772,2.778,16.32-2.718,21.693-4.116
	c2.285-0.594,4.391-1.565,6.28-2.827c10.653-18.879,16.745-40.659,16.745-63.838v-10.167L48.294,198.804l-9.516,13.493
	c-0.993,1.407-15.974,22.953-27.019,55.339C12.638,273.657,16.519,289.783,22.227,293.106z"/>
<path style="fill:#6C0014;" d="M243.886,398.884c-1.89,1.261-3.995,2.233-6.28,2.827c-5.374,1.398-10.96,0.637-15.733-2.142
	c-4.771-2.778-8.191-7.262-9.629-12.626c-0.957-3.571-0.928-7.217,0.001-10.64c1.231-1.189,2.331-2.549,3.235-4.1
	c5.321-9.137,2.168-20.892-7.039-26.255c-9.209-5.362-20.987-2.302-26.308,6.837c-0.905,1.553-1.544,3.183-1.971,4.843
	c-6.427,6.399-16.678,7.943-24.984,3.105c-8.306-4.837-12.024-14.513-9.632-23.26c1.232-1.191,2.335-2.553,3.24-4.106
	c5.32-9.137,2.168-20.892-7.041-26.255c-9.208-5.362-20.987-2.302-26.307,6.837c-0.81,1.39-1.399,2.842-1.824,4.32
	c-2.527,2.522-5.699,4.363-9.298,5.299c-5.374,1.398-10.96,0.636-15.733-2.142c-4.771-2.778-8.191-7.262-9.629-12.626
	c-0.957-3.571-0.928-7.217,0.001-10.641c1.231-1.19,2.331-2.549,3.235-4.1c5.321-9.137,2.168-20.892-7.039-26.254
	c-9.209-5.362-20.987-2.302-26.308,6.837c-0.904,1.553-1.544,3.183-1.971,4.843c-6.426,6.399-16.678,7.942-24.984,3.105
	c-5.707-3.323-9.248-8.931-10.129-14.954c-4.494,13.179-8.333,28.154-10.315,44.296c0.807,0.525,1.628,1.036,2.47,1.525
	c12.805,7.456,27.344,9.312,40.752,6.329c3.969,13.616,13.02,25.512,25.844,32.98c12.467,7.26,26.96,9.46,40.993,6.259
	c3.984,13.236,12.811,25.07,25.702,32.576c12.889,7.505,27.538,9.342,41.018,6.274c4.144,13.786,13.211,25.302,25.677,32.562
	c3.19,1.857,6.515,3.374,9.928,4.564C225.892,424.905,236.107,412.67,243.886,398.884z"/>
<path style="fill:#FFC170;" d="M297.079,297.739l166.627-98.934l9.516,13.493c1.584,2.244,38.776,55.747,38.776,122.749
	c0,71.856-58.46,130.315-130.315,130.315c-32.264,0-61.823-11.791-84.606-31.284V297.739H297.079z"/>
<path style="fill:#A2001D;" d="M489.773,293.106c-8.306,4.838-188.915,109.942-193.686,112.72
	c-4.773,2.778-16.32-2.718-21.693-4.116c-2.285-0.594-4.391-1.565-6.28-2.827c-10.653-18.879-16.745-40.659-16.745-63.838v-10.167
	l212.337-126.075l9.516,13.493c0.993,1.407,15.974,22.953,27.018,55.339C499.362,273.657,495.481,289.783,489.773,293.106z"/>
<path style="fill:#6C0014;" d="M268.114,398.884c1.89,1.261,3.995,2.233,6.28,2.827c5.374,1.398,10.96,0.637,15.733-2.142
	c4.771-2.778,8.191-7.262,9.629-12.626c0.957-3.571,0.928-7.217-0.002-10.64c-1.23-1.189-2.33-2.549-3.234-4.1
	c-5.321-9.137-2.168-20.892,7.039-26.255c9.209-5.362,20.987-2.302,26.308,6.837c0.905,1.553,1.544,3.183,1.971,4.843
	c6.426,6.399,16.678,7.943,24.984,3.105c8.306-4.837,12.024-14.513,9.632-23.26c-1.232-1.191-2.335-2.553-3.24-4.106
	c-5.321-9.137-2.168-20.892,7.041-26.255c9.208-5.362,20.986-2.302,26.307,6.837c0.81,1.39,1.399,2.842,1.824,4.32
	c2.527,2.522,5.699,4.363,9.298,5.299c5.374,1.398,10.96,0.636,15.733-2.142c4.771-2.778,8.191-7.262,9.629-12.626
	c0.957-3.571,0.928-7.217-0.002-10.641c-1.23-1.19-2.33-2.549-3.234-4.1c-5.321-9.137-2.168-20.892,7.039-26.254
	c9.209-5.362,20.987-2.302,26.308,6.837c0.904,1.553,1.544,3.183,1.971,4.843c6.426,6.399,16.678,7.942,24.984,3.105
	c5.707-3.323,9.248-8.931,10.128-14.954c4.495,13.179,8.334,28.154,10.316,44.296c-0.807,0.525-1.628,1.036-2.47,1.525
	c-12.805,7.456-27.344,9.312-40.752,6.329c-3.97,13.616-13.02,25.512-25.844,32.98c-12.467,7.26-26.96,9.46-40.993,6.259
	c-3.984,13.236-12.811,25.07-25.702,32.576c-12.889,7.505-27.538,9.342-41.018,6.274c-4.144,13.786-13.211,25.302-25.677,32.562
	c-3.19,1.857-6.515,3.374-9.928,4.564C286.108,424.905,275.893,412.67,268.114,398.884z"/>
<g>
	<rect x="39.686" y="46.637" style="fill:#A2001D;" width="35.721" height="175.961"/>
	<rect x="436.593" y="46.637" style="fill:#A2001D;" width="35.721" height="175.961"/>
</g>
</svg>